<svg xmlns="http://www.w3.org/2000/svg" viewBox="0 0 128 128">
  <!-- Definitions -->
  <defs>
    <!-- Gradient Background -->
    <linearGradient id="bgGradient" x1="0%" y1="0%" x2="100%" y2="100%">
      <stop offset="0%" stop-color="#4f46e5" />
      <stop offset="100%" stop-color="#7c3aed" />
    </linearGradient>
    
    <!-- Shiny Effect -->
    <linearGradient id="shinyEffect" x1="0%" y1="0%" x2="100%" y2="100%">
      <stop offset="0%" stop-color="white" stop-opacity="0.4" />
      <stop offset="100%" stop-color="white" stop-opacity="0" />
    </linearGradient>
    
    <!-- AI Brain Gradient -->
    <linearGradient id="brainGradient" x1="0%" y1="0%" x2="100%" y2="100%">
      <stop offset="0%" stop-color="#f0f9ff" />
      <stop offset="100%" stop-color="#e0f2fe" />
    </linearGradient>
    
    <!-- Glow Effect -->
    <filter id="glow" x="-20%" y="-20%" width="140%" height="140%">
      <feGaussianBlur stdDeviation="2" result="blur" />
      <feComposite in="SourceGraphic" in2="blur" operator="over" />
    </filter>
    
    <!-- Soft Shadow -->
    <filter id="softShadow" x="-50%" y="-50%" width="200%" height="200%">
      <feGaussianBlur in="SourceAlpha" stdDeviation="3" />
      <feOffset dx="0" dy="4" result="offsetblur" />
      <feComponentTransfer>
        <feFuncA type="linear" slope="0.3" />
      </feComponentTransfer>
      <feMerge>
        <feMergeNode />
        <feMergeNode in="SourceGraphic" />
      </feMerge>
    </filter>
  </defs>
  
  <!-- Main Icon Circle -->
  <circle cx="64" cy="64" r="60" fill="url(#bgGradient)" filter="url(#softShadow)" />
  
  <!-- Inner Circle -->
  <circle cx="64" cy="64" r="52" fill="#3730a3" opacity="0.7" />
  
  <!-- Shine Effect -->
  <path d="M27 27 L101 27 C88 40 88 88 101 101 L27 101 C40 88 40 40 27 27 Z" fill="url(#shinyEffect)" />
  
  <!-- AI Brain Circuit Node Design -->
  <g filter="url(#glow)">
    <!-- Main Brain Shape -->
    <path d="M64 35 C42 35 38 55 38 64 C38 73 42 93 64 93 C86 93 90 73 90 64 C90 55 86 35 64 35 Z" fill="url(#brainGradient)" />
    
    <!-- Circuit Lines -->
    <path d="M46 50 L64 50 L64 40 M64 50 L82 50 M46 64 L82 64 M46 78 L64 78 L64 88 M64 78 L82 78" stroke="#4f46e5" stroke-width="2.5" fill="none" stroke-linecap="round" />
    
    <!-- Neural Nodes -->
    <circle cx="46" cy="50" r="4" fill="#4f46e5" />
    <circle cx="46" cy="64" r="4" fill="#4f46e5" />
    <circle cx="46" cy="78" r="4" fill="#4f46e5" />
    <circle cx="64" cy="40" r="4" fill="#4f46e5" />
    <circle cx="64" cy="50" r="4" fill="#4f46e5" />
    <circle cx="64" cy="64" r="4" fill="#4f46e5" />
    <circle cx="64" cy="78" r="4" fill="#4f46e5" />
    <circle cx="64" cy="88" r="4" fill="#4f46e5" />
    <circle cx="82" cy="50" r="4" fill="#4f46e5" />
    <circle cx="82" cy="64" r="4" fill="#4f46e5" />
    <circle cx="82" cy="78" r="4" fill="#4f46e5" />
    
    <!-- Text Completion Indicator -->
    <path d="M42 98 L86 98" stroke="#f0f9ff" stroke-width="3" stroke-linecap="round" />
    <path d="M42 98 L56 98" stroke="#f0f9ff" stroke-width="3" stroke-linecap="round">
      <animate attributeName="d" dur="2s" repeatCount="indefinite" 
               values="M42 98 L56 98; M42 98 L72 98; M42 98 L86 98; M42 98 L56 98" />
    </path>
  </g>
  
  <!-- Subtle Reflection -->
  <ellipse cx="64" cy="39" rx="35" ry="15" fill="white" opacity="0.1" />
</svg>